<svg xmlns="http://www.w3.org/2000/svg" viewBox="0 0 940 455" role="img" aria-label="World map showing land only">
<desc>Coastlines from Natural Earth 50m land, public domain. Robinson projection. No national boundaries are shown.</desc>
<path fill="currentColor" fill-rule="evenodd" d="M835.2 307.1L835.8 315.2L838.0 314.8L840.1 317.2L840.6 330.8L846.6 335.2L847.6 342.5L850.3 342.2L850.1 345.9L854.4 354.4L852.5 363.5L846.7 372.8L838.7 380.1L831.8 387.7L827.9 393.4L821.4 394.7L815.3 397.4L815.1 398.8L814.2 395.8L811.9 396.1L813.5 395.3L813.2 394.6L807.8 397.7L802.7 396.2L800.2 392.4L801.5 389.5L800.8 386.8L802.0 386.1L798.5 386.9L800.5 384.9L800.5 382.1L798.0 385.3L795.5 385.7L800.9 380.1L801.9 376.7L798.9 380.2L792.6 384.7L791.9 376.6L784.6 373.0L768.7 375.7L763.0 378.2L759.7 381.2L749.4 381.4L742.4 385.0L738.7 384.8L735.4 382.3L736.2 379.9L738.5 378.8L740.4 373.7L740.7 365.1L738.5 355.1L740.2 356.2L739.8 353.1L741.4 355.5L740.6 349.2L744.0 340.6L743.9 342.6L752.6 336.5L765.8 332.9L770.6 327.9L770.9 324.6L773.4 322.2L774.5 325.9L775.8 323.8L775.4 321.5L778.7 322.1L777.7 321.8L778.2 319.0L780.1 318.9L779.6 317.9L781.2 317.8L780.8 316.4L782.3 314.9L783.4 315.7L783.7 313.9L787.8 314.1L789.7 316.5L789.0 318.5L790.8 316.6L793.8 317.8L794.6 316.8L793.4 315.3L797.9 308.7L804.2 307.7L802.4 304.5L811.0 307.9L813.8 306.7L813.0 308.0L814.0 308.7L815.6 307.1L816.6 308.4L814.8 311.4L813.2 311.7L811.1 317.1L820.7 325.2L824.2 326.2L827.9 321.0L832.7 303.7L834.1 303.0L835.2 307.1Z M935.4 325.4L936.0 327.8L932.0 327.8L933.0 325.9L935.4 325.4Z M891.8 335.1L898.0 342.1L893.0 338.6L891.8 335.1Z M792.0 263.9L794.7 261.5L793.6 264.3L795.5 266.0L792.5 265.8L794.0 269.8L791.9 267.6L791.0 262.9L792.7 259.3L792.0 263.9Z M357.5 34.7L355.5 36.0L351.6 35.9L352.8 34.7L357.5 34.7Z M759.7 238.3L765.5 228.6L766.2 231.3L759.7 238.3Z M774.1 227.6L776.1 228.7L773.0 231.5L772.3 226.8L774.1 227.6Z M776.9 236.2L774.5 233.6L776.6 229.7L777.6 230.4L776.9 236.2Z M781.9 224.5L784.0 229.5L779.2 224.9L781.9 224.5Z M797.8 276.4L800.2 277.3L800.8 279.8L798.0 278.0L792.9 277.4L792.2 278.6L793.1 276.4L797.8 276.4Z M775.9 295.8L767.1 296.1L769.6 294.6L774.6 295.9L776.3 294.1L775.9 295.8Z M762.5 294.8L764.6 294.8L764.9 296.2L758.1 297.1L759.3 295.0L761.6 296.2L762.4 295.7L761.1 294.3L762.5 294.8Z M727.3 272.4L729.5 275.4L729.0 277.1L724.5 273.6L725.5 272.1L727.3 272.4Z M452.3 14.6L459.2 16.7L455.5 17.9L451.7 17.5L452.8 16.3L449.7 14.9L452.3 14.6Z M524.9 9.5L523.6 10.3L520.1 10.0L524.9 9.5Z M503.1 9.3L506.0 9.7L501.8 10.8L497.3 10.5L503.1 9.3Z M520.0 39.6L517.6 40.9L515.9 40.0L516.8 38.6L520.0 39.6Z M507.9 146.7L504.2 150.1L502.1 148.8L507.9 146.7Z M442.4 80.1L440.9 83.3L438.5 80.3L441.4 79.0L442.4 80.1Z M35.8 32.9L37.0 33.9L30.6 34.5L33.2 33.0L35.8 32.9Z M212.4 412.8L210.6 412.5L209.9 407.7L212.1 409.0L212.4 412.8Z M250.5 101.7L244.4 99.1L248.4 99.7L250.5 101.7Z M249.1 112.0L249.8 112.7L251.6 110.8L252.5 112.0L247.9 112.8L251.8 108.5L251.0 111.0L249.1 112.0Z M184.6 204.5L187.5 206.3L182.9 206.4L181.4 204.8L184.6 204.5Z M40.1 73.7L41.0 74.5L34.0 77.0L35.2 76.3L34.1 75.2L36.6 74.2L36.5 75.3L38.0 73.6L40.1 73.7Z M82.8 78.3L83.7 81.0L82.6 81.1L83.4 81.9L82.0 83.4L80.9 80.1L82.3 79.7L81.2 79.5L82.8 78.3Z M863.6 281.3L865.1 281.4L863.9 285.2L858.9 287.9L852.7 285.9L857.2 285.4L858.1 283.7L858.2 285.4L860.4 285.1L862.8 283.2L862.7 280.9L863.6 281.3Z M789.4 295.2L778.0 301.4L778.5 299.2L783.1 295.9L789.4 295.2Z M808.0 404.3L810.7 405.6L816.6 404.5L810.8 412.2L809.7 411.0L806.8 413.7L804.7 413.5L806.0 406.3L807.4 403.9L808.0 404.3Z M587.0 9.0L590.4 9.6L589.4 9.9L590.6 10.6L584.7 11.1L579.9 10.4L581.4 9.1L587.0 9.0Z M591.8 10.8L592.8 11.1L592.9 11.7L593.8 11.0L597.3 11.7L596.9 12.9L599.4 13.6L599.1 14.0L585.1 12.4L587.0 10.9L591.8 10.8Z M604.2 13.0L604.7 14.0L606.3 13.2L611.2 14.9L601.2 16.0L601.5 12.7L604.2 13.0Z M688.8 21.5L691.1 22.0L690.3 20.7L700.6 22.3L700.1 23.5L693.8 21.9L694.9 22.6L698.6 23.7L691.7 24.5L685.2 23.0L683.6 21.7L684.7 20.6L688.8 21.5Z M700.9 26.6L706.0 28.4L697.6 27.9L700.9 26.6Z M704.2 22.7L713.2 23.2L709.7 24.1L703.7 23.1L704.2 22.7Z M898.3 384.6L900.6 385.7L898.2 391.1L899.7 392.3L901.1 389.8L900.3 393.8L902.8 394.9L907.0 393.9L901.7 399.1L899.5 399.1L896.7 402.2L888.6 407.1L887.6 406.0L892.2 402.1L890.1 399.4L893.6 397.6L896.7 394.3L897.3 391.9L898.3 391.9L897.4 386.7L898.5 385.9L897.3 385.6L897.6 383.0L898.3 384.6Z M883.5 405.9L887.4 405.1L885.5 407.5L877.0 412.6L876.6 414.6L874.3 414.0L870.7 415.9L865.0 421.2L858.4 423.7L853.4 421.5L863.4 415.3L873.8 411.2L882.6 404.2L885.0 403.4L883.5 405.9Z M785.3 235.3L787.6 242.3L786.6 245.5L784.9 242.2L784.3 247.9L783.8 246.3L780.3 245.1L780.5 241.8L778.8 240.4L778.0 241.8L775.6 240.6L773.9 243.2L774.5 239.9L777.9 237.4L779.1 239.6L783.9 236.3L783.7 233.8L785.3 235.3Z M766.6 203.9L770.2 204.5L771.7 209.0L769.4 215.0L771.0 218.9L772.4 219.8L773.5 218.4L775.1 220.4L775.6 219.3L777.2 220.1L776.4 220.7L778.4 224.4L773.5 219.8L773.8 222.2L771.1 219.7L767.8 220.2L768.3 217.3L767.2 216.5L766.9 218.0L765.7 216.6L764.1 211.9L765.9 212.4L765.2 204.3L766.6 203.9Z M809.1 269.2L811.0 269.6L811.1 274.5L813.6 278.1L822.2 271.8L841.5 279.7L845.2 283.0L845.0 285.0L850.9 288.1L850.8 289.4L848.2 290.1L852.4 297.3L854.3 297.2L854.3 298.8L856.5 299.4L856.0 300.5L858.8 301.3L857.0 302.7L849.7 300.7L845.1 294.0L840.8 292.3L838.2 291.9L839.0 293.6L837.9 294.4L833.7 294.4L837.1 296.3L834.7 298.2L830.3 297.9L827.6 293.5L824.0 294.6L823.7 291.2L825.0 291.0L823.4 290.2L822.9 285.9L810.2 279.6L809.9 277.1L807.2 280.6L806.7 277.9L804.5 276.4L809.6 275.6L810.3 273.9L805.4 274.3L804.4 272.0L801.6 271.6L802.5 269.6L806.3 267.9L809.1 269.2Z M783.5 263.4L780.2 265.7L769.6 265.9L769.1 268.6L770.9 271.4L773.6 269.6L779.2 269.4L772.9 273.1L777.1 281.6L773.3 282.8L773.4 280.6L771.3 278.6L771.9 276.0L770.7 275.8L769.5 276.7L769.7 285.6L767.1 285.7L767.5 280.4L767.1 278.6L765.3 278.2L765.1 275.9L768.5 269.7L768.2 267.1L769.7 263.5L772.1 262.3L780.6 263.9L783.7 261.0L783.5 263.4Z M730.7 287.0L734.4 289.7L739.6 290.2L740.9 288.4L745.9 290.1L747.1 292.6L751.3 293.1L751.6 296.3L727.7 291.6L728.0 290.6L724.3 289.5L726.9 286.7L730.7 287.0Z M698.5 249.1L701.6 249.2L710.8 259.4L711.9 260.2L712.3 259.1L718.1 264.5L717.0 266.0L720.3 265.8L719.6 268.7L722.3 270.3L723.7 273.8L723.0 275.5L725.3 274.8L727.1 277.2L725.9 286.4L722.7 285.4L722.5 286.7L713.8 277.4L706.9 265.6L705.1 260.5L695.4 250.3L694.8 247.9L698.5 249.1Z M758.6 244.2L759.8 243.3L761.3 245.3L760.9 246.9L762.3 246.3L762.3 247.5L766.2 248.7L763.3 249.9L764.2 252.0L761.1 252.8L762.0 254.3L759.9 254.5L763.0 258.9L762.2 259.9L765.9 263.4L762.7 263.0L761.7 269.4L759.2 270.3L757.7 272.8L758.5 274.9L756.6 278.9L752.8 280.8L751.8 277.7L749.9 278.4L748.0 276.7L744.4 278.7L744.0 276.5L739.7 276.8L739.0 271.1L736.6 268.3L736.3 261.7L737.9 259.9L742.7 262.0L743.5 257.5L747.8 256.1L750.7 251.3L754.9 250.0L754.8 248.5L758.6 244.2Z M544.7 20.5L533.8 22.8L529.6 25.0L527.6 28.2L522.7 28.1L521.0 26.9L524.7 25.0L523.4 24.6L524.8 23.7L523.2 23.2L531.7 20.4L542.9 18.6L546.0 19.3L544.7 20.5Z M524.9 28.2L527.3 28.5L526.2 30.3L526.9 31.9L533.6 35.2L525.2 35.0L525.7 34.1L523.5 33.0L519.0 32.4L520.8 30.9L520.8 29.9L519.9 29.7L521.4 29.3L520.8 28.5L524.9 28.2Z M768.3 84.5L773.8 89.1L776.3 92.4L789.0 103.2L785.8 101.2L783.5 101.3L785.6 106.1L791.6 110.7L792.0 111.8L790.3 110.0L788.1 109.6L788.7 112.1L775.8 94.7L771.5 91.4L768.9 87.9L770.4 87.6L767.6 84.9L768.3 84.5Z M797.4 118.1L800.3 118.7L801.1 117.4L802.0 119.6L804.5 120.5L800.5 122.2L800.5 125.2L795.5 123.2L791.8 123.3L791.9 124.2L795.2 125.8L792.9 126.9L790.1 123.2L790.0 120.8L792.7 120.9L788.8 113.8L797.4 118.1Z M796.3 127.3L802.4 133.8L801.8 138.1L804.1 144.5L805.9 146.2L805.4 148.0L804.4 148.9L803.1 146.4L802.0 149.9L800.9 148.2L800.2 150.0L797.0 150.1L795.6 148.5L795.4 149.7L796.8 150.9L794.7 153.8L792.4 152.0L792.4 149.9L790.3 149.4L784.0 150.9L784.2 152.6L780.6 152.1L784.0 146.9L792.2 146.6L791.7 140.6L792.8 140.2L792.4 141.5L793.9 142.8L796.1 141.2L797.3 135.6L794.4 129.6L794.4 127.7L797.1 128.9L796.7 127.8L795.4 127.7L796.3 127.3Z M789.9 151.2L791.6 152.6L790.8 154.6L788.9 153.7L787.6 156.2L785.5 154.0L784.6 154.3L786.1 151.7L789.9 151.2Z M781.8 153.4L783.3 153.4L785.1 155.8L785.2 160.8L783.9 162.1L783.2 159.8L783.4 161.5L781.8 160.8L781.1 156.0L779.7 154.8L780.7 156.4L779.2 156.9L778.3 155.2L779.5 155.9L777.8 154.6L780.1 152.3L781.8 153.4Z M763.9 190.4L763.5 192.7L760.6 186.9L763.7 181.5L765.0 182.5L763.9 190.4Z M736.0 199.3L734.4 204.5L730.3 204.2L729.8 201.6L731.3 199.7L736.0 199.3Z M648.7 233.6L650.9 235.2L654.7 242.2L654.1 245.1L651.4 246.6L649.6 246.0L648.7 243.7L648.1 239.1L649.0 234.4L650.0 234.8L648.7 233.6Z M557.9 308.7L559.9 319.5L559.2 320.6L557.8 319.1L556.2 328.6L548.2 350.4L542.0 352.9L539.0 351.1L537.4 342.3L541.3 334.0L540.6 325.4L542.3 321.5L548.0 320.5L551.1 316.6L552.9 316.3L553.0 312.9L555.6 311.5L557.0 307.5L557.9 308.7Z M236.0 443.4L237.5 443.5L238.5 445.3L242.6 447.9L248.7 449.9L245.8 451.1L231.8 449.7L235.7 449.4L233.7 448.1L233.9 446.5L235.6 448.9L238.7 449.1L235.2 447.4L236.4 445.7L233.5 445.2L233.0 443.7L236.0 443.4Z M173.1 188.6L178.9 189.5L194.3 198.7L183.7 199.8L185.5 197.1L182.9 196.7L181.5 193.9L172.7 191.8L172.9 190.3L163.8 193.1L166.5 190.3L173.1 188.6Z M449.9 10.6L452.6 11.0L453.6 10.2L461.8 11.4L454.3 13.0L445.3 11.5L446.2 11.0L444.4 10.8L447.1 10.9L447.4 10.2L449.9 10.6Z M442.5 11.4L444.5 11.6L444.4 12.7L445.6 12.1L451.8 14.3L447.7 15.2L444.0 19.6L438.3 17.3L443.7 16.4L437.5 16.0L443.7 15.2L442.5 14.9L443.1 14.5L439.1 14.3L436.4 15.5L432.7 13.7L434.7 13.7L432.4 13.3L431.2 11.7L436.7 11.5L434.7 12.2L437.4 12.8L438.9 11.7L442.1 13.7L440.8 11.8L442.5 11.4Z M437.6 128.9L437.7 134.6L435.2 135.4L433.8 128.8L436.5 127.6L437.6 128.9Z M437.0 122.5L436.4 127.2L434.5 124.0L437.0 122.5Z M454.5 137.8L453.5 143.0L445.8 139.2L446.6 137.9L454.5 137.8Z M298.3 37.4L299.6 38.4L295.6 39.4L293.3 38.0L294.9 37.4L294.1 36.9L295.3 36.4L298.3 37.4Z M83.8 96.6L87.5 97.7L89.2 103.8L85.4 103.1L85.0 102.6L86.8 101.3L84.4 102.2L82.7 100.6L84.3 99.8L80.8 98.3L83.0 96.8L81.4 96.1L83.8 96.6Z M200.6 200.2L206.4 200.4L210.7 204.2L209.6 205.3L202.8 205.1L201.4 207.2L199.7 205.2L194.3 205.9L193.1 203.9L199.0 203.9L196.4 199.9L200.6 200.2Z M263.4 267.5L267.1 267.8L265.8 271.4L260.8 272.8L260.4 267.7L263.4 267.5Z M403.8 71.5L401.3 74.5L407.0 74.8L403.2 78.3L404.7 78.6L402.0 79.1L407.2 80.8L408.2 83.5L411.1 85.4L411.6 87.0L409.7 86.7L412.0 87.9L411.4 89.3L415.5 89.8L415.4 91.8L412.4 94.0L414.9 94.9L396.8 98.5L400.6 94.9L403.3 94.8L405.1 93.1L402.9 94.2L398.1 93.1L401.2 90.5L400.9 89.3L399.5 89.6L400.5 88.5L404.4 88.0L403.6 87.4L404.2 85.3L402.3 84.0L403.8 82.7L398.8 83.3L400.0 79.6L398.4 79.8L398.8 78.8L397.1 81.5L398.6 77.0L396.3 77.2L399.2 71.4L403.8 71.5Z M393.5 82.4L396.1 81.9L397.6 84.2L395.4 85.8L396.1 89.2L395.2 91.4L387.5 93.9L384.9 92.9L386.1 91.8L385.0 91.6L389.1 90.0L386.2 90.4L388.8 88.3L385.9 87.7L387.3 86.4L386.1 84.9L389.9 85.0L391.0 83.7L389.4 83.6L390.7 82.1L392.2 82.6L393.2 81.4L393.5 82.4Z M21.5 40.3L25.8 43.9L24.3 44.9L25.4 44.9L22.2 47.0L22.4 48.1L23.9 47.5L25.0 45.6L27.1 45.5L30.4 46.1L31.4 48.6L27.4 49.9L26.5 49.3L25.8 50.2L22.9 49.7L21.5 51.6L18.8 52.2L18.7 53.4L16.3 53.9L13.3 52.3L14.6 50.3L9.5 50.3L10.6 48.7L13.2 47.6L9.6 48.3L7.4 50.2L4.0 51.5L21.5 40.3Z M376.6 48.1L378.8 47.7L377.5 48.5L380.7 50.2L380.5 51.6L368.4 56.5L359.4 55.2L362.2 52.8L356.8 52.1L361.8 51.6L360.5 51.1L362.1 50.4L356.2 50.2L359.0 49.5L357.8 49.2L358.9 48.3L361.0 49.1L360.3 47.5L363.4 48.7L362.7 49.6L363.6 50.9L366.1 48.5L367.5 49.5L369.2 48.3L370.6 49.6L370.4 48.3L372.0 48.9L375.1 47.3L376.6 48.1Z M510.9 8.9L516.8 9.5L511.4 9.6L510.0 9.4L510.9 8.9Z M228.2 34.5L232.0 34.4L233.6 32.8L231.9 31.8L235.4 31.6L234.2 29.8L237.2 29.6L235.5 28.7L244.7 27.1L245.4 29.7L242.4 30.9L244.0 30.5L242.2 32.0L245.6 30.5L247.0 32.1L247.7 30.8L249.8 31.3L248.8 30.2L252.3 29.8L255.2 30.7L252.2 32.5L256.3 31.7L253.7 32.6L254.7 32.6L253.1 33.9L256.6 32.4L255.2 33.4L257.1 33.7L258.5 32.6L260.8 33.1L261.2 33.8L257.4 35.0L261.9 34.3L258.2 36.0L259.6 35.9L258.6 36.9L261.6 35.2L264.6 35.1L265.8 35.9L261.3 37.1L266.1 36.4L267.1 37.8L262.2 38.6L267.3 39.3L261.9 39.8L264.5 39.9L263.9 40.7L260.9 40.5L265.8 41.7L264.8 42.8L266.7 42.2L265.5 43.5L266.9 42.8L267.5 43.9L269.1 42.9L270.7 44.3L268.5 44.9L272.0 45.2L269.9 46.4L273.8 45.8L275.0 46.9L271.8 47.6L272.5 48.7L271.1 48.8L270.4 49.8L268.9 49.2L267.2 51.9L264.4 49.5L267.5 47.9L263.9 48.8L262.3 47.0L260.0 47.4L260.3 49.0L257.7 48.2L260.0 50.4L260.0 52.3L262.7 52.5L263.1 53.4L261.7 53.8L263.5 55.6L262.2 57.0L261.8 55.4L261.7 58.0L260.6 58.0L260.3 58.9L255.6 55.5L255.4 56.5L253.2 55.6L257.6 60.2L256.3 61.2L246.5 57.6L245.6 56.5L247.3 56.0L245.2 55.3L244.7 53.0L242.6 53.4L241.9 52.2L241.3 53.2L235.9 54.0L233.7 53.2L234.4 51.9L237.1 50.4L240.2 52.2L240.2 50.8L245.6 50.3L244.9 48.3L251.8 45.2L250.8 41.0L248.7 40.7L249.5 40.0L244.8 41.0L247.8 39.5L246.5 38.8L247.4 38.2L245.5 38.3L243.2 35.6L242.1 36.1L242.5 37.2L236.9 36.9L237.4 38.0L222.3 35.8L222.3 34.3L227.0 34.5L222.5 33.1L224.7 30.6L227.7 28.7L232.3 27.1L237.9 26.9L232.2 29.7L231.1 32.0L232.3 33.5L228.2 34.5Z M288.8 5.1L294.0 5.3L289.8 5.8L298.7 5.5L301.9 6.6L286.7 8.5L294.0 8.2L283.3 10.4L281.5 10.0L281.7 10.7L278.1 10.9L280.8 10.9L278.6 11.7L267.7 12.3L271.1 13.5L263.5 13.4L270.5 14.3L266.3 14.8L268.2 15.3L261.9 16.2L259.6 17.7L253.8 17.3L254.2 17.7L252.7 18.1L259.3 19.0L252.3 20.7L250.1 19.3L250.0 19.9L246.7 19.4L243.9 20.3L237.8 20.1L238.6 19.2L237.5 20.0L235.7 19.9L236.8 19.0L243.0 18.1L241.9 17.1L242.9 16.5L247.5 17.7L252.8 16.4L247.6 17.4L247.4 16.3L250.6 15.7L249.4 15.5L250.4 14.8L247.8 15.8L244.2 15.7L247.3 14.2L257.3 13.7L252.4 13.6L254.1 13.5L250.9 11.5L251.8 10.6L261.3 12.1L258.4 10.5L270.9 9.4L267.7 9.2L272.1 8.3L262.8 9.8L254.9 10.1L253.1 9.7L259.9 8.8L250.6 9.8L248.6 9.2L257.2 8.6L248.0 9.1L249.4 8.6L248.7 8.5L253.0 8.1L245.9 7.9L258.8 7.2L256.5 6.7L260.2 6.2L268.5 7.4L264.4 6.3L271.7 5.8L270.2 5.3L276.2 6.1L275.3 5.1L282.5 5.7L281.5 5.3L283.0 5.0L288.8 5.1Z M213.8 32.4L215.6 36.7L214.2 36.6L214.4 37.1L211.6 38.2L216.4 38.8L214.3 39.3L214.2 42.2L218.4 39.4L220.2 40.7L219.5 42.1L218.4 42.2L217.7 43.2L218.1 45.4L220.6 44.5L225.0 41.1L227.0 40.8L227.8 37.7L234.1 38.3L233.0 38.7L235.4 39.6L233.5 40.4L234.8 40.9L231.3 41.7L232.2 44.5L231.0 45.7L225.2 47.7L222.6 46.2L223.9 48.2L218.2 47.3L219.0 48.5L214.0 50.7L206.5 48.9L214.7 51.1L210.1 54.2L205.6 54.3L204.4 55.7L202.7 56.0L197.3 54.3L202.3 56.8L201.5 57.8L197.5 58.3L198.0 59.0L196.5 59.1L195.7 60.3L194.6 59.7L194.9 60.1L186.8 65.3L183.4 69.8L184.2 70.9L183.3 72.2L184.7 70.8L186.9 70.9L185.9 75.3L184.2 76.5L190.2 75.6L199.2 80.7L199.0 82.3L206.4 82.3L203.3 88.9L204.1 90.8L203.2 91.5L205.4 93.0L205.4 94.2L203.9 95.1L206.1 94.6L207.2 96.2L207.3 94.3L208.7 93.5L209.0 94.8L209.7 93.0L211.8 91.4L213.2 85.8L212.4 83.6L218.2 81.6L223.3 77.8L224.5 73.9L222.1 71.1L227.4 66.8L228.1 64.4L226.7 64.4L229.6 62.1L229.5 59.9L231.7 59.1L237.3 60.4L240.1 59.4L243.5 61.9L243.2 63.3L247.6 63.8L245.6 66.6L243.2 66.8L245.2 67.1L245.2 69.0L242.4 70.7L246.7 70.8L245.9 72.6L243.8 73.4L247.2 71.6L247.3 73.2L251.6 70.6L252.0 71.8L254.7 68.5L255.6 68.8L255.2 67.6L258.2 66.0L257.2 66.8L258.4 66.7L259.2 69.4L257.7 69.8L259.8 71.0L257.8 72.1L260.2 71.6L258.0 73.1L261.0 73.4L259.1 74.7L261.3 76.2L260.8 77.3L258.2 76.9L260.2 78.3L259.7 79.4L262.2 80.1L260.5 82.4L263.0 81.6L263.6 82.0L262.2 83.2L264.1 81.9L268.0 83.9L259.4 86.9L259.1 88.2L265.3 85.1L267.5 85.3L266.9 87.5L269.3 86.5L270.3 87.5L269.8 90.2L268.4 90.5L269.7 91.6L265.5 94.0L261.4 94.5L256.2 97.9L239.6 98.0L228.9 104.6L225.7 103.8L228.4 104.7L227.6 106.1L213.5 113.4L214.1 114.0L211.7 115.1L215.3 113.8L217.1 111.8L225.3 108.5L233.2 103.2L241.0 101.1L243.9 102.2L243.1 103.9L236.5 105.2L241.4 106.2L239.1 108.2L240.4 108.4L240.3 111.1L244.4 113.0L246.7 112.3L248.6 114.2L239.1 116.7L234.9 120.1L233.5 119.1L234.3 116.8L239.5 114.0L240.0 115.1L242.4 114.0L238.4 114.0L240.4 112.4L239.7 112.0L235.6 114.4L232.2 114.6L232.2 115.7L228.9 117.2L227.2 116.6L222.5 119.3L218.7 124.1L220.9 126.2L217.4 126.9L217.1 125.8L216.3 127.2L208.9 129.3L209.5 127.7L207.6 132.5L204.5 135.4L203.4 133.6L205.1 131.9L203.8 132.6L203.7 137.1L200.0 141.4L201.5 138.7L200.4 136.2L202.4 133.5L200.3 134.3L199.8 138.3L197.6 137.2L198.6 135.6L197.4 137.2L199.8 138.9L197.7 138.0L199.4 140.0L198.0 140.2L198.9 141.7L196.5 140.8L199.6 142.2L199.8 145.9L199.5 143.1L199.3 144.9L196.9 144.5L199.2 145.8L197.6 147.5L195.3 146.9L196.6 147.7L195.0 148.6L196.4 149.2L193.6 149.6L191.5 152.2L182.1 157.3L179.2 161.7L180.3 176.3L178.0 181.6L176.2 181.9L173.0 174.0L174.1 172.8L172.9 172.8L174.1 169.3L170.9 165.2L167.0 166.6L166.6 164.6L162.9 163.6L159.7 164.7L160.1 163.2L159.4 164.3L153.1 164.6L155.5 165.4L154.3 166.8L155.5 168.8L153.0 167.1L152.8 168.4L151.0 168.5L148.2 166.1L147.0 167.0L142.8 165.6L139.7 167.6L140.5 167.1L139.2 166.5L139.3 167.6L136.0 170.1L133.8 169.9L134.2 170.7L131.9 171.8L130.5 174.5L129.6 174.1L130.4 178.9L126.2 190.4L130.0 203.3L134.0 205.5L140.1 203.7L142.7 204.5L145.4 201.5L147.3 195.9L157.3 193.9L157.6 195.9L154.4 200.5L153.4 205.1L153.1 203.2L152.0 204.8L151.4 210.6L149.4 213.1L160.9 212.8L165.4 215.3L165.7 218.4L162.8 228.6L167.6 236.6L170.6 237.0L176.5 234.6L180.2 236.2L183.2 240.0L182.9 237.8L186.8 234.9L188.2 230.4L189.5 229.3L190.7 230.4L191.6 228.6L194.1 228.6L199.4 224.8L200.7 226.1L198.2 227.7L199.0 230.8L197.3 233.6L198.7 236.2L200.5 234.0L199.5 229.8L204.5 228.0L203.2 226.6L204.1 225.7L205.0 228.0L208.6 229.1L209.2 231.4L214.9 230.9L218.1 232.8L222.3 231.3L220.7 230.9L227.9 230.5L224.8 231.2L225.2 232.8L230.9 235.2L228.3 237.7L229.2 238.4L232.6 237.7L236.6 240.7L237.5 242.0L236.8 245.2L238.9 243.9L241.1 245.9L241.2 248.1L241.8 246.5L249.6 246.8L250.2 248.7L251.1 247.2L258.8 252.9L260.2 259.6L262.6 262.8L256.4 271.4L254.4 272.0L259.6 269.9L261.2 273.6L264.4 272.6L263.5 275.7L267.9 269.2L270.1 268.9L278.3 272.6L278.0 274.4L279.1 274.7L278.1 277.6L279.6 275.1L279.7 276.2L282.1 274.8L292.3 276.4L300.7 283.3L305.7 284.2L307.8 290.5L306.4 297.9L300.6 304.7L298.2 310.1L296.4 309.9L296.3 326.5L291.7 341.0L288.9 344.2L281.4 344.6L271.7 352.5L270.1 352.4L271.2 353.1L271.1 363.2L263.5 375.1L266.8 369.5L264.5 368.1L265.0 370.5L263.3 372.7L262.4 378.6L258.9 383.7L253.4 384.5L248.5 383.1L246.3 380.5L246.3 376.3L246.4 382.5L250.9 386.1L250.7 387.9L252.9 389.5L253.3 391.4L250.3 396.4L242.7 398.3L239.1 397.6L240.4 399.6L240.8 404.7L237.7 405.5L233.4 404.4L234.9 408.7L236.7 409.8L238.1 408.7L239.1 410.7L235.5 410.6L237.5 411.6L235.6 413.6L236.0 418.4L232.8 419.2L231.9 421.8L235.2 425.0L237.8 425.5L237.6 427.7L238.8 428.0L235.6 431.4L235.6 434.8L232.9 434.8L234.5 435.3L233.3 438.1L234.8 439.8L233.8 439.9L237.5 442.3L232.0 443.8L232.3 447.4L228.7 445.6L230.5 446.1L231.0 443.9L228.6 446.0L227.0 445.3L227.1 443.7L230.0 443.2L226.8 443.0L226.6 444.7L224.9 444.0L225.7 442.9L223.7 443.3L222.3 441.6L225.8 441.1L226.9 442.1L226.1 440.3L224.1 439.5L226.1 440.6L224.1 441.4L221.8 440.2L221.9 438.9L218.0 437.0L218.7 436.0L221.7 437.9L221.5 436.4L221.1 437.5L218.5 435.4L219.8 433.5L218.8 431.6L218.2 432.8L217.9 429.8L216.7 429.8L215.8 428.2L219.2 428.7L217.7 427.1L216.7 428.1L215.3 427.3L216.5 426.9L215.4 426.4L215.0 424.2L211.3 424.0L212.6 422.2L211.9 421.2L214.3 419.7L214.1 422.4L215.3 421.0L216.0 423.5L214.9 419.9L217.0 419.8L215.3 418.7L216.7 417.0L214.7 415.6L213.9 409.2L215.0 409.6L213.4 408.0L214.3 406.7L211.0 407.6L209.4 405.4L209.4 399.1L206.5 392.7L207.6 392.1L208.5 385.2L208.8 377.0L206.1 364.4L207.1 355.6L205.9 345.2L206.7 339.3L204.8 328.8L187.1 316.1L177.4 295.8L173.5 289.6L169.9 287.2L170.7 285.8L169.2 282.5L173.8 275.5L173.5 273.7L172.2 275.9L170.1 274.1L172.6 264.1L176.2 262.7L177.2 258.8L179.5 257.6L181.8 253.6L180.5 252.5L181.2 244.6L178.3 239.6L179.2 238.5L180.3 239.3L175.5 236.4L172.3 239.0L173.5 241.4L171.0 242.4L170.5 240.1L169.8 241.0L168.5 239.3L163.0 238.1L162.7 235.9L158.5 232.2L158.8 234.4L157.2 233.3L157.2 229.3L152.0 223.2L153.0 223.1L152.7 221.7L149.6 222.3L141.4 219.5L133.4 211.8L134.4 212.7L131.9 211.4L126.8 213.9L107.7 204.9L102.5 199.4L104.2 194.2L103.1 190.4L98.0 182.2L94.8 180.3L95.7 177.2L90.4 170.7L89.2 161.5L87.6 160.3L84.7 159.1L83.5 165.0L89.2 176.6L90.0 184.6L93.0 187.5L91.0 189.5L86.2 182.9L86.4 178.3L80.2 173.2L82.8 173.4L83.6 170.8L80.1 166.3L79.2 154.4L71.8 150.1L71.0 140.1L72.1 140.3L72.2 138.5L74.5 138.4L70.3 138.6L69.8 135.5L70.4 130.6L73.2 127.0L74.5 122.5L82.6 111.1L84.5 111.4L82.5 110.9L84.6 108.7L85.3 104.0L89.8 104.8L87.3 107.4L90.0 105.5L88.6 107.6L87.1 108.1L88.2 108.1L91.0 105.2L90.8 101.5L92.2 100.7L89.7 100.2L90.9 99.7L91.3 98.1L89.7 99.4L88.6 98.8L90.4 95.9L89.0 97.0L86.3 97.1L86.6 95.3L83.8 95.0L87.8 93.2L84.8 93.3L87.5 91.1L88.6 92.0L88.4 90.8L89.8 89.5L84.4 92.9L87.3 89.3L86.1 87.3L88.6 88.1L87.4 87.2L88.5 86.2L84.4 88.2L83.7 86.7L86.7 85.0L85.2 84.4L90.1 81.1L87.8 82.4L90.2 79.8L85.8 83.4L85.6 82.1L86.8 81.6L88.3 79.1L84.1 80.8L87.3 78.8L85.4 75.7L86.3 74.3L87.4 74.5L87.2 73.7L88.1 73.5L86.7 72.9L88.3 71.5L86.0 71.9L87.4 68.7L84.6 72.4L83.1 71.9L84.4 69.8L83.4 70.7L82.3 69.9L82.9 71.7L80.9 72.4L77.2 68.3L79.1 67.0L78.6 68.1L80.0 67.4L79.4 66.8L76.2 67.8L75.1 66.5L68.2 66.8L67.5 65.8L69.1 64.8L65.6 65.4L64.9 64.6L66.9 63.5L62.3 64.2L63.8 63.2L60.5 64.3L60.7 64.8L59.2 65.4L60.8 65.4L57.9 66.9L56.1 66.5L47.4 69.4L51.0 67.6L49.1 67.5L53.6 64.7L59.5 64.2L58.2 63.3L60.3 62.3L48.1 66.0L47.9 66.9L41.5 69.5L41.9 70.8L22.0 78.0L20.6 79.2L11.5 80.6L4.3 83.1L12.0 79.7L15.2 80.0L16.9 78.4L28.0 74.7L29.5 73.0L31.0 72.5L30.9 71.8L35.1 69.6L30.0 71.2L30.0 70.5L31.5 70.1L29.7 70.1L27.4 71.9L26.3 69.8L20.6 71.1L23.4 69.6L25.7 66.0L28.4 64.8L24.3 66.9L20.5 67.5L19.8 65.2L25.3 64.1L21.8 64.0L23.1 63.5L22.1 61.8L28.7 59.3L32.2 57.1L34.2 57.6L41.9 55.8L44.0 54.0L43.5 53.4L46.2 52.3L40.5 53.6L33.5 53.0L33.9 51.2L36.2 50.9L33.4 49.8L45.3 47.1L47.1 47.1L44.7 48.2L45.0 48.6L51.3 48.3L51.4 46.1L51.2 47.5L54.0 47.6L51.5 46.8L53.1 45.8L49.4 45.6L47.4 42.0L50.8 40.4L57.7 39.6L66.0 36.3L70.9 35.6L70.1 36.5L72.2 35.8L71.2 35.5L72.7 35.1L82.1 33.4L82.8 34.2L80.8 34.9L83.6 34.2L88.6 34.9L87.7 36.0L105.0 36.9L117.2 41.0L117.2 39.8L122.4 38.1L122.9 38.6L121.5 39.4L134.3 36.8L124.7 39.4L122.0 40.8L127.2 38.9L128.2 39.5L131.7 38.0L134.5 37.9L138.7 36.5L139.1 35.7L140.4 39.1L145.0 36.8L144.5 38.1L143.0 39.1L149.3 37.7L161.8 40.5L162.7 41.9L158.5 43.5L170.1 43.0L172.7 45.2L171.2 45.6L172.1 47.6L172.5 46.0L173.6 46.2L174.3 43.5L181.2 41.3L174.5 42.6L173.9 42.1L175.6 41.2L181.1 40.3L182.5 42.8L186.5 43.8L193.9 43.8L195.2 43.6L195.4 42.8L196.9 44.1L198.0 43.4L196.1 42.0L198.2 41.5L200.8 42.1L199.5 42.9L201.6 42.3L199.0 44.4L199.9 45.9L197.8 45.8L198.2 47.0L198.4 46.1L200.9 45.1L202.2 42.9L208.0 41.2L208.0 40.1L205.9 40.7L207.8 39.2L209.8 39.0L205.2 37.7L205.4 36.3L207.7 35.3L207.5 34.1L210.1 33.6L210.0 32.9L212.3 32.0L213.8 32.4Z M221.7 57.9L218.0 60.2L216.3 59.5L218.5 58.0L221.7 57.9Z M223.7 23.5L222.7 24.5L220.7 24.6L217.6 23.5L222.8 22.0L223.7 23.5Z M203.4 14.5L202.8 15.3L195.7 15.3L203.4 14.5Z M194.1 29.3L192.4 27.6L197.4 27.4L194.1 29.3Z M207.8 26.5L213.3 26.9L208.4 29.2L211.6 29.9L209.2 32.2L205.6 32.2L204.8 33.3L202.6 33.5L199.0 29.8L200.9 28.8L204.7 29.3L204.7 28.5L206.2 28.5L203.4 27.7L205.4 27.8L205.4 26.9L207.8 26.5Z M219.6 50.9L220.9 50.4L224.8 52.8L224.0 54.7L227.3 55.3L224.9 56.4L221.0 54.3L214.2 57.4L214.5 55.6L211.1 56.0L214.3 54.3L218.7 49.3L219.6 50.9Z M246.1 42.1L247.1 42.5L245.6 44.6L241.2 44.4L243.6 42.3L246.1 42.1Z M248.8 27.3L253.3 27.7L254.3 29.4L246.4 29.5L246.3 27.1L248.8 27.3Z M219.7 19.9L217.2 21.7L217.3 22.5L214.8 23.5L210.1 23.5L210.5 22.6L214.4 21.8L206.9 22.1L211.2 21.6L210.4 20.4L211.6 20.0L213.8 21.3L213.9 20.8L215.1 20.7L213.7 19.8L219.7 19.9Z M217.6 12.8L217.8 13.9L222.2 14.3L221.8 16.1L212.0 15.2L215.8 14.3L213.2 14.1L213.8 12.9L217.6 12.8Z M244.2 8.9L247.2 10.8L249.9 10.4L248.7 10.9L250.0 11.4L248.5 12.2L251.9 12.9L245.5 14.4L245.5 13.6L244.4 14.8L243.1 14.7L241.8 15.6L240.7 14.6L240.4 15.7L235.1 15.1L237.0 14.8L234.0 13.6L240.5 12.7L233.1 12.9L232.8 12.3L235.7 11.8L232.8 11.9L232.5 10.8L237.3 10.7L233.7 10.5L235.4 10.4L235.7 9.7L238.9 10.0L236.8 9.4L241.6 8.9L240.6 8.4L244.2 8.9Z M227.7 18.8L229.3 19.2L227.8 20.0L232.8 19.4L235.7 20.3L231.3 20.5L234.1 22.5L248.6 21.5L252.6 22.5L250.1 23.5L251.8 23.8L245.7 25.0L243.5 23.9L242.8 24.7L240.8 24.9L226.8 24.5L226.7 22.8L228.7 21.5L228.4 20.2L223.9 20.4L222.1 19.3L227.7 18.8Z M228.8 14.8L230.8 15.1L229.5 15.5L229.8 15.9L225.1 16.6L224.7 15.9L226.2 15.7L225.4 14.2L228.8 14.8Z M200.3 15.8L201.7 16.0L198.6 16.5L199.6 16.8L197.6 17.5L194.0 17.7L193.9 16.6L200.3 15.8Z M187.9 17.7L185.6 18.3L184.8 19.3L180.7 20.4L179.7 20.1L181.4 19.1L176.7 20.7L176.3 20.3L173.9 21.4L169.0 20.8L180.8 17.8L187.9 17.7Z M197.5 20.9L199.0 21.9L200.6 21.0L202.4 21.2L199.1 23.3L183.7 25.2L181.0 24.4L189.3 22.9L183.4 23.4L185.1 22.5L184.1 22.5L179.0 23.7L176.3 22.9L182.7 21.9L178.5 22.0L183.8 21.3L180.7 21.2L185.2 20.7L183.4 20.4L185.9 19.9L190.4 22.2L194.1 22.3L194.0 21.3L195.5 20.8L194.7 20.1L199.1 19.0L197.5 20.9Z M222.2 25.9L227.1 26.8L220.9 29.7L216.5 29.7L217.3 30.4L215.1 31.7L212.6 31.7L216.0 27.1L222.2 25.9Z M201.7 38.3L204.5 40.6L200.8 41.7L195.7 40.4L199.2 38.5L200.0 38.8L200.5 37.8L201.7 38.3Z M174.0 30.1L178.9 29.1L181.1 29.8L179.1 30.9L184.6 29.1L185.9 30.3L185.1 32.8L187.0 32.1L188.7 28.6L192.4 28.5L193.5 29.6L192.2 32.9L190.5 34.3L194.7 37.8L188.9 38.2L188.4 39.5L191.2 38.7L191.2 39.6L187.9 40.6L181.4 38.8L173.3 41.0L164.8 41.6L165.5 39.5L160.1 38.9L160.5 37.1L173.1 36.4L161.4 35.5L161.3 34.4L169.0 33.1L163.1 33.4L164.4 32.7L162.1 32.4L165.3 31.0L165.9 30.3L171.3 28.9L176.8 28.1L176.1 29.2L174.0 30.1Z M168.2 26.0L173.1 25.7L175.1 27.7L164.8 30.0L161.1 31.2L157.9 33.1L151.3 34.2L148.5 31.8L158.8 26.9L158.9 25.4L166.0 24.8L168.2 26.0Z M269.5 93.7L267.8 94.4L268.1 95.4L263.9 100.0L266.1 98.3L267.7 98.7L265.7 99.9L268.0 100.3L267.3 101.7L269.9 100.2L272.0 100.9L269.9 104.0L272.9 103.2L270.2 105.2L270.3 106.4L272.9 104.9L271.5 106.9L272.9 106.8L271.1 109.6L269.6 109.8L270.1 108.1L268.3 109.0L269.7 107.1L269.2 105.7L264.0 109.0L267.4 106.4L255.6 106.5L259.0 103.6L256.8 103.4L260.3 102.0L260.1 100.7L261.3 100.4L264.9 95.4L269.5 93.7Z M331.0 7.0L327.2 5.9L331.4 6.2L331.0 7.0Z M359.0 4.0L366.0 4.6L354.8 5.2L367.1 4.8L372.8 5.8L357.8 7.0L367.5 7.7L373.1 7.0L373.0 7.9L369.0 9.6L375.9 7.8L379.7 8.3L385.7 7.5L390.6 8.2L380.6 10.0L382.0 10.3L380.9 10.6L374.0 11.1L375.7 13.2L371.3 14.5L369.5 16.8L373.8 16.8L371.8 17.5L375.6 18.0L375.6 18.8L367.1 19.4L372.1 20.8L372.2 23.1L366.8 23.3L369.3 23.4L369.2 24.6L371.2 23.7L372.3 25.4L368.4 26.0L366.9 24.8L365.9 26.1L369.8 26.7L369.0 27.8L365.4 28.3L359.3 26.7L360.6 27.6L354.6 28.7L361.8 27.9L365.9 29.3L364.8 31.4L361.4 30.4L360.6 28.9L356.2 29.8L360.1 29.3L360.2 30.2L359.1 30.8L365.3 32.5L364.0 33.4L365.6 33.2L365.5 35.8L363.6 36.0L363.8 34.9L361.6 36.0L359.5 33.9L354.5 32.8L357.0 34.0L351.2 34.5L351.7 35.3L349.4 36.0L354.6 36.0L352.7 37.2L356.9 36.3L363.6 37.1L353.7 41.1L343.5 42.8L340.8 41.7L340.8 43.0L334.1 47.5L331.4 47.5L331.6 48.4L326.4 50.0L328.1 47.9L326.2 47.7L327.0 48.0L325.0 48.8L325.5 49.6L320.9 50.1L321.8 50.9L318.3 51.6L319.8 53.3L316.5 53.8L318.5 54.3L318.3 55.6L315.7 57.6L314.1 57.1L315.1 57.8L314.2 58.6L311.8 58.6L313.5 59.1L312.9 61.2L311.6 61.6L309.4 65.3L307.4 65.0L308.7 66.7L306.6 67.4L305.5 67.1L306.3 66.0L303.5 66.2L305.5 64.8L302.4 65.0L303.4 63.2L297.5 64.5L298.7 63.8L295.8 62.0L297.4 60.5L295.5 60.8L294.4 59.4L296.3 57.6L294.7 58.3L293.4 54.7L296.6 54.1L293.3 54.1L297.5 52.6L296.2 51.1L296.2 52.3L292.8 54.1L292.8 50.7L296.6 49.4L292.9 50.4L291.8 48.7L297.7 46.2L291.4 48.4L292.5 46.9L295.1 46.2L292.4 45.9L292.7 44.7L296.0 43.7L299.8 44.4L296.4 43.5L293.0 44.3L295.1 42.4L299.5 42.1L294.7 42.1L295.9 41.2L300.0 41.3L301.0 40.7L300.0 40.9L300.8 39.7L302.6 39.6L300.9 39.5L303.6 37.1L295.5 35.3L303.3 36.1L301.8 34.5L303.4 34.5L299.5 34.0L302.8 32.6L299.1 32.9L300.1 32.3L299.8 30.8L299.5 32.1L297.9 33.2L294.6 33.0L297.3 30.8L295.9 30.5L298.3 29.4L296.6 29.0L297.9 28.1L296.5 27.5L297.4 27.0L297.2 26.0L295.1 26.0L297.7 24.9L294.4 22.7L295.3 22.3L295.1 21.9L287.0 20.2L276.5 20.9L274.9 20.1L278.1 19.5L273.1 18.4L283.5 17.2L277.4 17.4L272.4 15.6L287.7 13.2L292.6 10.9L287.7 11.0L288.1 10.3L299.6 8.9L301.1 7.6L302.8 7.3L308.7 8.4L305.0 7.1L314.0 6.4L315.3 6.8L314.7 7.8L316.7 6.5L322.3 7.3L320.5 6.4L322.3 6.2L330.8 7.6L332.4 6.2L330.6 5.6L338.0 5.6L330.0 5.0L340.5 4.5L344.0 5.1L343.4 4.4L345.3 4.1L359.0 4.0Z M454.4 69.0L455.7 68.8L455.2 69.6L450.4 71.1L452.2 71.6L450.7 78.7L447.6 79.0L446.5 81.3L443.3 81.3L442.0 78.5L442.9 77.5L438.5 72.0L438.7 69.8L436.6 67.6L435.8 70.0L434.2 69.6L431.1 72.7L427.6 72.9L424.8 71.2L424.8 70.0L426.6 70.0L425.4 69.7L426.6 68.3L423.7 69.5L423.8 68.2L427.9 65.3L423.6 68.0L423.7 66.6L424.8 66.5L423.5 65.5L424.7 64.8L423.4 64.9L423.1 63.7L429.2 63.2L423.9 63.5L422.8 61.2L427.0 61.2L423.3 60.3L430.1 58.6L426.9 58.6L428.8 57.5L431.3 58.2L430.1 57.3L431.0 55.9L434.4 56.6L437.4 55.3L434.4 56.2L433.4 55.3L437.3 51.8L440.1 51.1L438.7 50.6L440.5 48.9L439.9 48.5L442.6 47.9L440.6 48.1L440.7 46.9L445.4 45.3L443.2 45.1L445.7 44.9L443.8 43.6L449.6 41.8L447.3 41.5L450.7 38.8L452.0 39.2L453.6 37.8L453.7 38.9L454.9 37.4L454.7 39.1L456.0 38.6L455.5 37.5L458.5 37.7L456.9 36.6L459.7 36.2L461.3 37.3L463.5 34.5L465.9 34.9L464.9 36.9L467.4 34.7L468.0 36.1L470.8 34.4L471.5 36.5L472.4 34.9L477.2 36.1L472.9 36.8L475.1 38.0L479.9 37.4L482.2 38.0L481.1 38.7L483.4 38.9L483.1 39.9L488.8 39.6L501.4 43.8L502.7 46.4L497.8 48.6L481.9 45.4L489.1 48.9L488.9 50.5L491.1 53.4L497.1 55.3L498.3 54.5L494.3 52.3L494.7 51.2L501.7 53.0L503.1 52.4L500.9 50.0L505.3 47.3L510.1 48.8L509.8 46.1L508.0 45.2L507.9 42.3L505.5 41.1L511.3 41.6L513.8 43.4L510.3 44.7L514.5 46.5L516.9 46.0L516.7 44.2L518.3 43.3L525.7 42.0L527.9 40.1L529.4 40.1L527.7 42.2L539.3 40.1L540.3 40.9L540.2 41.7L541.7 42.0L543.3 40.2L540.8 38.4L542.0 37.7L549.5 38.6L560.8 42.0L561.2 40.3L555.3 38.5L554.1 35.2L552.1 34.3L554.4 32.6L554.4 29.2L559.1 29.3L562.0 29.9L562.4 33.2L565.2 34.6L568.6 40.2L571.7 41.6L571.8 43.7L569.5 46.0L570.4 46.8L564.6 46.5L572.3 48.1L575.6 43.7L573.5 41.8L574.3 40.5L577.0 40.2L579.7 41.6L580.8 43.6L585.0 44.2L581.8 43.7L581.7 42.3L579.7 40.4L570.8 39.5L569.3 37.8L569.4 35.6L565.0 33.3L567.6 31.4L565.8 29.6L568.0 30.2L569.7 33.3L570.9 33.8L578.5 34.6L570.2 32.0L574.8 32.0L572.7 31.3L574.3 30.7L585.5 32.5L584.8 33.8L586.0 35.6L587.1 34.8L587.9 36.6L589.1 37.0L589.4 35.7L586.9 34.2L586.4 32.6L579.0 30.4L576.1 27.5L588.3 26.6L587.1 27.8L589.7 28.7L587.4 27.8L589.9 26.8L585.5 25.4L587.9 25.3L584.3 24.6L586.9 23.7L585.4 23.2L597.4 21.3L595.3 20.8L602.3 21.4L605.5 20.5L608.3 21.0L608.6 21.6L608.1 20.8L605.1 19.8L610.7 20.0L609.0 19.7L607.7 18.6L611.2 16.8L616.3 17.6L613.6 18.3L620.5 18.8L619.9 19.8L628.4 19.3L636.5 21.3L637.2 22.2L634.1 21.5L637.9 22.5L637.9 23.5L628.6 29.6L637.5 27.2L635.2 27.0L635.5 26.3L641.5 26.5L644.1 28.1L645.0 29.5L646.7 30.0L645.2 29.6L644.9 28.1L643.7 27.7L644.6 27.4L653.5 27.4L654.9 27.7L654.6 28.4L658.2 29.1L664.2 29.4L665.4 28.5L663.5 27.3L665.4 27.0L677.0 28.7L676.7 29.3L678.7 29.8L677.6 30.3L679.7 30.6L680.9 31.5L676.6 30.6L689.3 35.2L688.5 32.0L692.5 33.3L696.9 32.8L702.5 34.1L701.4 32.9L705.5 33.2L702.5 31.9L703.3 31.2L700.6 30.9L703.6 30.2L701.9 29.3L714.9 30.6L712.3 31.3L716.7 31.0L716.6 31.9L714.7 31.1L715.6 32.6L717.5 30.9L722.8 31.3L725.0 32.0L723.6 32.6L734.5 34.9L747.2 34.7L751.7 35.8L754.5 37.8L757.5 38.4L761.2 40.4L761.6 41.4L761.7 40.4L759.8 39.0L762.0 38.0L772.0 38.0L779.7 40.7L781.5 40.6L781.2 39.7L777.4 38.3L776.0 36.9L788.6 37.5L801.4 40.2L818.6 51.5L817.2 52.9L811.5 51.5L810.4 51.6L813.2 52.3L807.9 52.7L810.4 52.0L811.9 53.0L813.9 52.4L816.6 53.8L817.5 53.6L820.8 55.2L821.4 56.0L827.2 58.4L828.1 59.8L821.3 58.4L816.9 62.4L817.0 67.0L811.8 65.0L807.8 65.6L807.6 67.3L805.4 65.4L804.5 67.3L801.0 66.8L803.6 72.9L807.7 73.8L808.5 75.5L813.5 78.7L812.9 79.2L811.7 77.8L810.9 77.9L810.9 79.1L812.1 81.0L815.6 83.4L812.3 85.2L815.5 88.6L811.9 88.9L814.7 92.9L813.8 95.6L797.8 81.9L793.8 77.2L793.9 75.4L792.2 73.7L794.9 73.1L795.4 65.4L797.5 64.1L793.5 59.9L795.7 59.4L792.4 58.7L790.5 59.1L793.6 62.1L791.6 61.8L790.2 64.9L789.3 63.7L788.1 64.0L785.9 61.1L779.1 61.8L779.2 67.4L779.8 68.3L783.4 69.4L775.2 70.4L775.9 69.1L768.3 67.6L767.7 69.2L753.1 69.2L748.1 82.7L752.8 83.8L754.8 86.4L755.9 84.9L755.6 85.5L757.2 86.0L756.8 87.2L758.9 85.9L759.9 87.3L758.4 84.7L761.3 85.0L767.9 88.1L767.1 88.7L771.3 91.7L772.6 96.1L777.5 103.9L775.6 119.0L771.7 122.8L766.9 121.0L764.4 126.1L766.0 129.0L762.1 132.6L762.5 134.5L766.0 136.3L771.6 141.7L774.1 148.0L767.8 151.0L765.9 148.1L766.1 145.7L763.0 142.7L765.0 142.1L762.7 139.3L759.3 139.5L756.8 138.1L758.3 136.3L757.0 135.9L756.4 133.4L752.9 131.8L746.1 136.1L746.9 133.9L745.1 133.4L746.3 130.2L744.2 128.6L742.5 128.8L739.4 134.6L736.2 134.7L736.9 137.1L741.0 138.4L743.3 141.5L746.3 139.1L752.3 140.6L752.3 142.5L747.2 144.6L746.4 149.2L750.2 151.1L753.8 156.5L757.7 159.4L752.4 159.0L754.3 158.8L758.9 162.4L755.0 164.7L760.8 166.0L759.5 167.3L760.8 167.2L759.7 168.5L760.9 171.3L758.7 172.2L758.0 176.8L756.5 176.4L757.8 177.9L755.8 178.6L757.3 179.0L757.9 181.1L753.4 184.2L754.2 184.9L750.4 189.3L745.3 190.0L744.4 191.5L741.7 188.8L742.4 191.8L733.8 194.8L734.2 198.3L731.8 196.2L732.3 194.3L729.8 194.4L728.1 192.9L723.1 195.9L721.1 202.8L732.3 214.9L735.1 224.2L734.2 228.5L729.4 231.7L727.5 231.4L727.6 233.5L726.2 232.3L727.6 234.2L725.3 233.0L726.4 235.0L723.5 237.6L722.5 237.7L722.9 232.8L718.5 231.2L718.1 229.1L717.1 229.9L715.0 225.6L709.8 224.1L709.8 221.4L707.0 221.7L707.3 225.7L705.4 231.9L705.9 235.5L707.7 235.4L709.8 242.5L713.1 243.6L718.4 249.0L719.4 256.9L721.7 262.2L719.7 262.3L713.0 257.0L709.1 245.0L704.5 238.9L703.3 239.0L704.1 227.2L700.0 216.6L699.0 210.8L696.0 208.0L696.1 210.4L694.4 210.2L694.9 211.3L692.5 213.7L692.2 212.4L690.3 213.1L690.1 211.0L688.9 212.7L689.3 207.5L687.0 201.7L686.8 203.0L685.3 201.4L686.8 201.2L681.2 196.6L679.1 191.3L677.7 189.5L676.3 190.5L674.8 187.2L673.9 187.6L675.4 191.3L674.6 193.1L673.5 190.9L672.7 193.3L672.2 191.6L672.1 193.5L671.0 192.2L670.4 193.9L669.8 192.1L669.9 193.7L668.5 193.7L667.6 191.3L667.9 193.1L665.0 195.1L665.1 198.2L661.0 200.1L658.2 205.0L653.6 209.1L653.5 210.9L648.0 213.7L648.1 231.9L646.6 232.1L645.6 234.5L647.1 235.7L644.1 236.0L641.6 239.5L638.6 236.7L627.2 211.2L624.1 199.8L623.3 194.3L624.7 193.4L623.0 193.5L623.6 191.7L621.7 191.6L621.7 195.4L617.4 196.4L612.4 191.5L615.8 190.6L616.5 188.8L614.2 190.0L611.6 189.0L610.3 187.2L611.2 186.3L607.7 186.2L603.7 180.5L589.4 182.1L578.6 180.2L577.3 179.7L574.9 175.2L569.2 177.3L559.8 172.7L554.5 164.9L553.1 165.4L551.3 163.8L551.0 165.4L548.6 165.5L549.2 167.0L548.1 167.6L551.8 173.2L556.1 176.8L556.0 178.6L558.5 182.8L558.9 179.1L560.4 179.4L560.3 184.6L562.8 185.9L568.6 185.2L574.3 177.8L575.8 184.2L582.3 187.4L585.7 191.5L582.4 197.9L580.6 198.4L580.8 202.6L574.3 206.5L573.3 209.3L566.1 211.2L565.2 213.9L555.1 219.3L541.3 224.2L539.1 222.0L535.6 207.9L530.7 200.1L526.1 196.0L523.1 186.7L520.3 184.8L512.5 172.2L510.9 172.1L511.5 167.0L509.8 173.1L504.3 165.8L505.0 169.1L515.3 186.0L515.3 189.3L518.9 192.5L521.2 203.3L524.6 205.8L527.8 214.3L532.9 217.4L539.6 225.0L537.3 227.9L539.2 227.7L542.6 231.4L544.6 231.5L561.7 226.3L563.1 226.8L562.7 231.5L563.7 231.7L562.4 231.9L562.2 234.9L554.1 251.6L531.3 275.6L528.1 282.5L526.7 287.2L528.9 290.5L528.0 295.3L529.2 300.5L531.7 302.7L530.9 310.6L531.8 316.7L528.6 322.2L521.6 326.0L518.1 330.1L512.8 333.2L514.9 342.0L514.3 348.3L506.3 353.3L504.3 362.9L496.7 372.4L490.2 378.3L483.4 381.6L474.9 381.5L467.6 384.1L463.0 382.1L461.9 377.5L463.3 376.4L463.1 373.9L454.6 355.6L453.5 342.5L445.9 327.5L445.9 320.2L448.4 312.1L451.8 307.7L452.4 304.1L449.9 297.3L451.1 295.0L447.9 287.4L450.2 286.5L447.7 286.4L446.4 282.2L440.0 274.7L437.3 268.8L439.0 267.9L439.2 265.6L441.1 266.1L439.1 264.9L440.9 256.4L440.2 253.1L438.1 253.0L435.9 250.1L436.0 251.4L432.4 250.8L431.9 251.9L431.5 250.8L431.7 252.0L429.4 252.3L427.7 250.4L427.6 247.8L422.4 244.5L415.2 246.0L405.4 250.7L401.8 248.7L395.6 249.2L388.9 252.1L386.7 251.3L374.2 241.8L370.7 233.3L365.7 228.9L366.7 227.6L365.4 227.0L366.7 226.4L364.1 227.0L361.6 224.7L362.7 224.2L361.7 224.1L361.8 221.5L365.7 221.3L362.7 221.7L362.2 219.4L359.6 217.0L362.5 213.7L364.1 207.6L362.9 201.4L363.9 198.5L362.0 195.6L361.3 196.4L365.1 186.3L368.1 183.3L369.5 178.5L372.1 176.5L374.1 172.6L378.1 171.2L382.1 167.6L383.7 165.2L383.4 160.7L385.1 156.8L391.8 152.1L394.7 146.0L396.5 145.6L398.3 148.0L405.9 148.3L414.8 143.5L421.8 142.3L426.1 143.1L429.4 141.6L433.4 142.4L438.3 140.8L440.3 142.8L442.3 142.4L440.6 144.4L442.5 147.8L439.7 151.3L440.4 152.9L446.1 155.9L454.4 157.5L456.0 160.7L465.4 164.5L468.4 162.8L468.4 158.0L472.6 155.6L482.0 158.8L483.1 160.4L494.3 162.7L499.7 160.1L504.3 161.9L509.4 160.2L512.6 150.2L511.4 144.2L512.2 142.6L508.0 142.5L503.0 145.2L498.4 142.5L494.3 144.8L492.1 142.9L488.1 143.0L490.0 141.8L487.2 142.0L486.8 138.6L484.1 137.6L484.4 136.4L486.4 137.0L485.3 136.2L485.4 133.4L483.2 133.6L483.2 131.9L484.6 130.5L490.8 130.5L493.0 129.3L490.8 127.8L496.7 128.1L502.0 125.1L506.4 125.0L510.6 127.6L516.2 128.8L524.2 127.1L524.8 125.3L523.4 122.7L509.1 114.7L511.6 113.9L512.0 111.9L513.4 111.6L511.2 109.8L514.5 107.7L506.0 109.8L504.3 111.5L504.6 110.4L503.7 111.2L504.5 112.8L505.8 114.1L508.8 113.9L508.5 114.9L502.2 117.2L500.9 116.6L500.9 114.8L497.9 113.8L500.4 111.5L495.7 110.9L494.8 110.0L497.5 109.8L496.0 109.7L495.0 107.9L495.6 109.7L492.8 110.0L490.1 112.8L490.3 115.7L488.6 115.3L488.3 120.2L485.8 123.6L490.4 128.5L486.5 128.6L483.3 131.6L484.7 129.7L479.9 128.5L476.3 129.3L478.1 131.3L476.4 130.7L477.1 132.0L473.3 130.2L475.6 134.6L473.6 135.6L477.9 138.1L478.0 139.6L476.5 138.4L475.2 139.0L476.6 140.4L474.4 140.1L476.0 143.8L474.6 142.6L473.9 143.7L472.8 141.8L472.4 142.8L469.9 138.9L471.7 137.5L475.4 138.0L469.9 137.4L468.7 135.6L469.6 135.1L464.5 130.9L464.6 125.9L456.9 120.5L454.4 120.1L450.1 114.2L448.4 115.7L447.5 112.6L444.0 113.7L444.6 117.7L447.8 119.9L450.8 124.3L455.3 125.5L454.6 126.8L462.0 131.1L461.7 132.4L457.7 130.3L456.8 132.7L458.7 135.2L455.8 138.8L454.7 138.4L456.1 135.4L454.4 131.9L441.5 123.9L438.7 118.7L434.8 117.1L427.8 121.6L422.2 119.8L420.1 121.2L420.1 125.3L413.3 129.1L410.4 133.5L411.9 136.0L405.4 142.7L399.1 142.9L395.6 145.2L392.2 141.0L386.3 141.8L387.3 137.1L385.7 136.4L387.1 134.9L385.1 135.9L387.6 129.3L387.7 124.2L386.5 121.2L390.6 119.3L405.9 120.7L407.3 119.9L408.4 113.4L409.8 115.2L408.1 112.8L408.3 110.8L405.8 109.0L405.7 107.8L406.7 107.9L400.0 105.9L399.1 105.1L400.2 104.3L399.0 103.5L407.7 103.1L406.5 99.7L412.4 100.5L411.8 99.7L415.0 98.4L415.9 95.7L422.1 94.2L420.1 93.7L422.2 93.9L421.6 92.5L425.3 88.1L429.5 88.1L430.5 86.8L432.7 87.7L433.0 86.2L435.9 87.2L433.0 84.8L433.7 84.0L432.7 81.2L431.4 80.7L431.3 77.5L433.9 77.2L433.6 76.1L431.6 77.0L432.4 75.9L437.1 74.0L436.5 77.5L438.2 78.0L435.1 81.0L436.0 84.3L438.9 84.6L438.5 85.7L439.9 86.0L443.9 84.5L448.0 86.9L446.0 85.4L447.4 86.0L456.4 83.1L459.9 84.5L463.6 80.6L462.6 82.6L464.1 82.8L462.9 77.4L464.2 74.5L466.1 74.0L469.2 76.4L470.8 75.5L470.6 72.0L468.7 72.0L467.7 69.4L483.1 67.2L478.7 64.8L466.2 67.4L465.7 66.2L464.8 66.8L464.9 65.7L462.0 65.0L461.9 62.0L460.3 58.9L461.0 57.1L468.8 51.7L468.4 50.3L466.6 49.2L461.6 49.2L459.6 50.8L459.3 52.3L460.3 53.3L458.9 55.1L451.7 59.4L452.1 64.7L456.6 67.4L454.4 69.0Z M545.0 108.8L537.6 112.9L536.5 117.0L539.1 120.0L539.4 118.9L540.5 122.9L549.5 130.9L547.3 131.2L546.4 134.9L547.6 139.7L555.7 143.2L561.7 142.5L560.0 135.4L557.8 134.3L558.3 132.1L557.2 132.6L555.9 130.5L555.9 128.4L558.8 129.7L560.7 128.3L557.2 124.7L555.2 125.2L555.5 127.8L553.6 122.6L549.8 121.2L547.7 117.8L546.0 117.1L549.4 116.7L547.6 115.4L548.4 114.0L553.1 114.1L551.8 113.3L551.9 109.7L545.0 108.8Z"/>
</svg>
